<?xml version="1.0" encoding="utf-8"?><svg xmlns="http://www.w3.org/2000/svg" xmlns:xlink="http://www.w3.org/1999/xlink"><symbol fill="none" viewBox="0 0 24 24" id="arrow" xmlns="http://www.w3.org/2000/svg"><path d="m18.75 7.75-7 8-6.5-8" stroke="#333"/></symbol><symbol fill="none" viewBox="0 0 24 24" id="basket" xmlns="http://www.w3.org/2000/svg"><path d="M5.255 10.566a2.5 2.5 0 0 1 2.492-2.697h8.506a2.5 2.5 0 0 1 2.492 2.697l-.525 6.632a2.5 2.5 0 0 1-2.492 2.302H8.272a2.5 2.5 0 0 1-2.492-2.302l-.525-6.632Z" stroke="#333"/><path d="M8 12.5S7.783 4 12 4s4 8.5 4 8.5" stroke="#333"/></symbol><symbol fill="none" viewBox="0 0 20 20" id="clock" xmlns="http://www.w3.org/2000/svg"><circle cx="10" cy="10" r="7" fill="#fff" stroke="#333"/><path d="M9.554 5.5v5.206L13.5 13" stroke="#333"/></symbol><symbol fill="none" viewBox="0 0 16 16" id="close" xmlns="http://www.w3.org/2000/svg"><path d="m3.7 12.066 8.35-8.183M12.252 12.066l-8.35-8.183"/></symbol><symbol fill="none" viewBox="0 0 20 20" id="desc" xmlns="http://www.w3.org/2000/svg"><circle cx="10" cy="10" r="7" stroke="#333"/><path d="M6 8c.25 0 2.758-1.5 2.758-1.5H11.25S13.75 8 14 8" stroke="#333"/><path d="M6.016 7.393v1.785l1.745.298v4.463M13.984 7.393v1.785l-1.745.298.009 4.463M7.511 13.438h4.986M8.509 6.5s.498 1.785 1.495 1.785c.997 0 1.496-1.785 1.496-1.785" stroke="#333"/></symbol><symbol fill="none" viewBox="0 0 24 24" id="favorite" xmlns="http://www.w3.org/2000/svg"><path d="M11.9 7.095c-1.2-5.616-10.49-1.191-6.14 4.507 4.352 5.698 6.64 7.889 6.64 7.889"/><path d="M11.894 7.095c1.2-5.616 10.837-1.191 6.485 4.507C14.027 17.3 11.7 19.5 11.7 19.5"/><path d="M11.391 6.708h1.013l-.02.533h-.993v-.533Z"/></symbol><symbol fill="none" viewBox="0 0 20 20" id="pay" xmlns="http://www.w3.org/2000/svg"><rect x="3.5" y="5.5" width="13" height="9" rx=".5" stroke="#333"/><path fill="#333" d="M4 8h12v2H4z"/></symbol><symbol fill="none" viewBox="0 0 24 24" id="person" xmlns="http://www.w3.org/2000/svg"><circle cx="12.46" cy="8.189" r="3.689" stroke="#333"/><path d="M4.5 19.338h15M4.5 19.84c0-3.405 4.347-5.927 7.714-5.838 3.219.085 7.286 2.433 7.286 5.838" stroke="#333"/></symbol><symbol viewBox="0 0 100 100" id="sprite" xmlns="http://www.w3.org/2000/svg"/><symbol fill="none" viewBox="0 0 12 12" id="star" xmlns="http://www.w3.org/2000/svg"><g clip-path="url(#ja)"><path d="m6 3.565.485 1.145.235.555.6.05 1.235.105-.94.815-.455.395.135.59.28 1.205-1.06-.64L6 7.465l-.515.31-1.06.64.28-1.205.135-.59-.455-.395-.94-.815 1.235-.105.6-.05.235-.555L6 3.565ZM6 1 4.595 4.315 1 4.62l2.73 2.365-.82 3.515L6 8.635 9.09 10.5l-.82-3.515L11 4.62l-3.595-.305L6 1Z" fill="#333"/></g><defs><clipPath id="ja"><path d="M0 0h12v12H0z"/></clipPath></defs></symbol><symbol fill="none" viewBox="0 0 12 12" id="star_fill" xmlns="http://www.w3.org/2000/svg"><g clip-path="url(#ka)"><path d="M6 8.635 9.09 10.5l-.82-3.515L11 4.62l-3.595-.305L6 1 4.595 4.315 1 4.62l2.73 2.365-.82 3.515L6 8.635Z" fill="#333"/></g><defs><clipPath id="ka"><path fill="#fff" d="M0 0h12v12H0z"/></clipPath></defs></symbol></svg>